<svg xmlns="http://www.w3.org/2000/svg" width="100%" height="100%" viewBox="0 0 928 902" fill="none">
    <path
        d="M507.62 507.686C555.146 507.686 595.192 475.572 607.364 431.8H562.707C552.524 451.944 531.68 465.749 507.62 465.749C475.773 465.749 449.559 441.559 446.248 410.499H338.374V423.813H435.982C444.686 455.29 473.463 478.397 507.62 478.397C533.457 478.397 556.215 465.177 569.537 445.114H588.726C573.709 474.74 543.028 495.038 507.62 495.038C470.683 495.038 438.889 472.949 424.657 441.222V441.12H372.223V454.433H417.178C434.884 486.204 468.751 507.686 507.62 507.686Z"
        fill="#2350FF"></path>
    <path
        d="M507.62 300C555.146 300 595.192 332.114 607.364 375.885H562.707C552.524 355.742 531.68 341.937 507.62 341.937C475.773 341.937 449.559 366.127 446.248 397.186H338.374V383.873H435.982C444.686 352.395 473.463 329.289 507.62 329.289C533.457 329.289 556.215 342.509 569.537 362.572H588.726C573.709 332.945 543.028 312.648 507.62 312.648C470.683 312.648 438.889 334.737 424.657 366.463V366.566H372.223V353.253H417.178C434.884 321.481 468.751 300 507.62 300Z"
        fill="#2350FF"></path>
    <path
        d="M366.914 359.909C366.914 363.586 363.942 366.566 360.277 366.566C356.611 366.566 353.64 363.586 353.64 359.909C353.64 356.233 356.611 353.253 360.277 353.253C363.942 353.253 366.914 356.233 366.914 359.909Z"
        fill="#2350FF"></path>
    <path
        d="M366.914 447.776C366.914 451.453 363.942 454.433 360.277 454.433C356.611 454.433 353.64 451.453 353.64 447.776C353.64 444.1 356.611 441.12 360.277 441.12C363.942 441.12 366.914 444.1 366.914 447.776Z"
        fill="#2350FF"></path>
    <path
        d="M326.427 397.186C330.093 397.186 333.064 394.206 333.064 390.53C333.064 386.853 330.093 383.873 326.427 383.873C322.762 383.873 319.79 386.853 319.79 390.53C319.79 394.206 322.762 397.186 326.427 397.186Z"
        fill="#2350FF"></path>
    <path
        d="M333.064 417.156C333.064 420.832 330.093 423.813 326.427 423.813C322.762 423.813 319.79 420.832 319.79 417.156C319.79 413.48 322.762 410.499 326.427 410.499C330.093 410.499 333.064 413.48 333.064 417.156Z"
        fill="#2350FF"></path>
    <path
        d="M287.703 589.563V585.462H292.906V589.563C292.906 592.893 291.891 595.477 289.859 597.316C287.827 599.106 284.779 600 280.715 600C276.652 600 273.579 599.106 271.498 597.316C269.416 595.477 268.376 592.893 268.376 589.563V559.741C268.376 556.411 269.392 553.851 271.423 552.062C273.455 550.223 276.503 549.304 280.567 549.304C284.63 549.304 287.703 550.223 289.784 552.062C291.866 553.851 292.906 556.411 292.906 559.741V566.824H287.703V559.741C287.703 555.765 285.349 553.777 280.641 553.777C275.933 553.777 273.579 555.765 273.579 559.741V589.563C273.579 593.539 275.933 595.527 280.641 595.527C285.349 595.527 287.703 593.539 287.703 589.563Z"
        fill="#2F2F2F"></path>
    <path
        d="M329.348 559.741V589.563C329.348 592.893 328.283 595.477 326.152 597.316C324.071 599.106 320.924 600 316.711 600C312.549 600 309.402 599.106 307.271 597.316C305.14 595.477 304.074 592.893 304.074 589.563V559.741C304.074 556.411 305.115 553.851 307.196 552.062C309.327 550.223 312.474 549.304 316.637 549.304C320.849 549.304 324.021 550.223 326.152 552.062C328.283 553.851 329.348 556.411 329.348 559.741ZM324.145 589.563V559.741C324.145 555.765 321.667 553.777 316.711 553.777C311.756 553.777 309.278 555.765 309.278 559.741V589.563C309.278 593.539 311.756 595.527 316.711 595.527C321.667 595.527 324.145 593.539 324.145 589.563Z"
        fill="#2F2F2F"></path>
    <path d="M347.543 598.882H342.34V550.422H347.543V598.882Z" fill="#2F2F2F"></path>
    <path
        d="M366.836 598.882H361.632V550.422H363.862L365.721 555.268C368.099 551.292 371.395 549.304 375.607 549.304C382.892 549.304 386.534 552.783 386.534 559.741V598.882H381.331V559.741C381.331 557.853 380.91 556.386 380.067 555.343C379.274 554.299 377.788 553.777 375.607 553.777C373.427 553.777 371.42 554.622 369.586 556.312C367.752 558.002 366.836 559.642 366.836 561.232V598.882Z"
        fill="#2F2F2F"></path>
    <path
        d="M418.156 589.563V585.462H423.36V589.563C423.36 592.893 422.344 595.477 420.312 597.316C418.28 599.106 415.232 600 411.169 600C407.105 600 404.032 599.106 401.951 597.316C399.87 595.477 398.829 592.893 398.829 589.563V559.741C398.829 556.411 399.845 553.851 401.877 552.062C403.908 550.223 406.956 549.304 411.02 549.304C415.084 549.304 418.156 550.223 420.238 552.062C422.319 553.851 423.36 556.411 423.36 559.741V566.824H418.156V559.741C418.156 555.765 415.802 553.777 411.094 553.777C406.386 553.777 404.032 555.765 404.032 559.741V589.563C404.032 593.539 406.386 595.527 411.094 595.527C415.802 595.527 418.156 593.539 418.156 589.563Z"
        fill="#2F2F2F"></path>
    <path
        d="M458.686 598.882H456.456L454.524 594.111C453.483 595.9 452.12 597.341 450.435 598.435C448.75 599.478 446.892 600 444.86 600C437.724 600 434.156 596.521 434.156 589.563V582.107C434.156 575.149 437.724 571.67 444.86 571.67H453.483V559.443C453.483 557.654 452.913 556.262 451.773 555.268C450.633 554.274 448.949 553.777 446.718 553.777C442.308 553.777 440.103 555.666 440.103 559.443V563.842H434.899V559.741C434.899 556.411 435.865 553.851 437.798 552.062C439.78 550.223 442.754 549.304 446.718 549.304C450.683 549.304 453.656 550.223 455.639 552.062C457.671 553.851 458.686 556.411 458.686 559.741V598.882ZM453.483 576.143H444.86C442.779 576.143 441.341 576.665 440.549 577.709C439.756 578.752 439.359 580.219 439.359 582.107V589.563C439.359 591.451 439.756 592.918 440.549 593.961C441.341 595.005 442.779 595.527 444.86 595.527C446.941 595.527 448.874 594.732 450.658 593.141C452.442 591.501 453.384 589.886 453.483 588.295V576.143Z"
        fill="#2F2F2F"></path>
    <path
        d="M476.527 598.882H471.324V550.422H482.548C486.414 550.422 489.337 551.342 491.32 553.181C493.352 555.02 494.368 557.579 494.368 560.86V573.534C494.368 576.864 493.376 579.448 491.394 581.287C489.412 583.077 486.463 583.971 482.548 583.971H476.527V598.882ZM489.164 573.534V560.86C489.164 558.971 488.594 557.505 487.454 556.461C486.315 555.417 484.679 554.895 482.548 554.895H476.527V579.498H482.548C486.959 579.498 489.164 577.51 489.164 573.534Z"
        fill="#2F2F2F"></path>
    <path
        d="M510.718 598.882H505.515V550.422H507.745L509.603 555.268C511.982 551.292 515.278 549.304 519.49 549.304C526.775 549.304 530.417 552.783 530.417 559.741V598.882H525.214V559.741C525.214 557.853 524.793 556.386 523.95 555.343C523.157 554.299 521.671 553.777 519.49 553.777C517.31 553.777 515.303 554.622 513.469 556.312C511.635 558.002 510.718 559.642 510.718 561.232V598.882Z"
        fill="#2F2F2F"></path>
    <path
        d="M562.039 589.563V585.462H567.243V589.563C567.243 592.893 566.227 595.477 564.195 597.316C562.163 599.106 559.115 600 555.052 600C550.988 600 547.915 599.106 545.834 597.316C543.753 595.477 542.712 592.893 542.712 589.563V559.741C542.712 556.411 543.728 553.851 545.76 552.062C547.791 550.223 550.839 549.304 554.903 549.304C558.967 549.304 562.039 550.223 564.12 552.062C566.202 553.851 567.243 556.411 567.243 559.741V576.143H547.915V589.563C547.915 593.539 550.269 595.527 554.977 595.527C559.685 595.527 562.039 593.539 562.039 589.563ZM547.915 559.741V571.67H562.039V559.741C562.039 555.765 559.685 553.777 554.977 553.777C550.269 553.777 547.915 555.765 547.915 559.741Z"
        fill="#2F2F2F"></path>
    <path
        d="M598.464 589.563V550.422H603.667V589.563C603.667 593.539 605.947 595.527 610.506 595.527C615.115 595.527 617.419 593.539 617.419 589.563V550.422H622.623V589.563C622.623 592.843 621.582 595.403 619.5 597.242C617.419 599.081 614.322 600 610.209 600C606.145 600 603.097 598.559 601.065 595.676C599.133 598.559 596.085 600 591.922 600C587.809 600 584.711 599.081 582.63 597.242C580.549 595.403 579.508 592.843 579.508 589.563V550.422H584.711V589.563C584.711 593.539 586.991 595.527 591.55 595.527C596.159 595.527 598.464 593.539 598.464 589.563Z"
        fill="#2F2F2F"></path>
    <path
        d="M659.624 589.563C659.624 596.521 655.437 600 647.062 600C638.686 600 634.499 596.521 634.499 589.563V583.226H639.702V589.861C639.702 591.65 640.322 593.042 641.561 594.036C642.8 595.03 644.633 595.527 647.062 595.527C649.49 595.527 651.323 595.03 652.562 594.036C653.801 593.042 654.421 591.7 654.421 590.01C654.421 588.271 654.223 586.904 653.826 585.91C653.479 584.866 652.736 583.772 651.596 582.629L638.513 569.806C636.977 568.265 635.911 566.774 635.317 565.333C634.771 563.842 634.499 561.978 634.499 559.741C634.499 556.411 635.515 553.851 637.547 552.062C639.628 550.223 642.75 549.304 646.913 549.304C654.892 549.304 658.881 552.783 658.881 559.741V566.078H653.677V559.443C653.677 557.654 653.083 556.262 651.893 555.268C650.754 554.274 649.019 553.777 646.69 553.777C644.361 553.777 642.601 554.274 641.412 555.268C640.272 556.262 639.702 557.629 639.702 559.368C639.702 561.108 639.876 562.475 640.223 563.469C640.57 564.463 641.338 565.507 642.527 566.6L655.833 579.423C657.27 581.014 658.261 582.555 658.807 584.046C659.352 585.487 659.624 587.326 659.624 589.563Z"
        fill="#2F2F2F"></path>
    <path fill-rule="evenodd" clip-rule="evenodd"
        d="M280.567 551.304C276.765 551.304 274.287 552.168 272.766 553.545L272.755 553.554L272.745 553.563C271.242 554.887 270.376 556.842 270.376 559.741V589.563C270.376 592.438 271.252 594.425 272.812 595.809C274.392 597.161 276.915 598 280.715 598C284.521 598 287.004 597.159 288.527 595.824C290.045 594.445 290.906 592.453 290.906 589.563V587.462H289.703V589.563C289.703 591.956 288.979 594.085 287.228 595.564C285.542 596.988 283.229 597.527 280.641 597.527C278.054 597.527 275.74 596.988 274.054 595.564C272.304 594.085 271.579 591.956 271.579 589.563V559.741C271.579 557.348 272.304 555.219 274.054 553.74C275.74 552.316 278.054 551.777 280.641 551.777C283.229 551.777 285.542 552.316 287.228 553.74C288.979 555.219 289.703 557.348 289.703 559.741V564.824H290.906V559.741C290.906 556.858 290.026 554.908 288.481 553.579L288.47 553.57L288.46 553.561C286.882 552.166 284.364 551.304 280.567 551.304ZM270.092 550.57C272.634 548.276 276.247 547.304 280.567 547.304C284.891 547.304 288.515 548.277 291.098 550.554C293.708 552.804 294.906 555.969 294.906 559.741V568.824H285.703V559.741C285.703 558.158 285.25 557.306 284.647 556.796C283.979 556.232 282.761 555.777 280.641 555.777C278.521 555.777 277.303 556.232 276.635 556.796C276.032 557.306 275.579 558.158 275.579 559.741V589.563C275.579 591.146 276.032 591.998 276.635 592.508C277.303 593.072 278.521 593.527 280.641 593.527C282.761 593.527 283.979 593.072 284.647 592.508C285.25 591.998 285.703 591.146 285.703 589.563V583.462H294.906V589.563C294.906 593.326 293.74 596.501 291.201 598.799L291.191 598.808L291.181 598.817C288.638 601.056 285.029 602 280.715 602C276.397 602 272.778 601.054 270.194 598.833L270.184 598.824L270.174 598.815C267.577 596.521 266.376 593.342 266.376 589.563V559.741C266.376 555.985 267.539 552.824 270.092 550.57ZM316.637 551.304C312.73 551.304 310.131 552.171 308.503 553.576L308.5 553.579C306.954 554.908 306.074 556.858 306.074 559.741V589.563C306.074 592.422 306.964 594.405 308.567 595.793C310.197 597.156 312.802 598 316.711 598C320.689 598 323.279 597.148 324.847 595.801C326.455 594.412 327.348 592.428 327.348 589.563V559.741C327.348 556.874 326.454 554.928 324.866 553.594L324.855 553.585L324.845 553.576C323.221 552.174 320.6 551.304 316.637 551.304ZM305.891 550.547C308.525 548.275 312.219 547.304 316.637 547.304C321.093 547.304 324.812 548.27 327.448 550.539C330.115 552.783 331.348 555.953 331.348 559.741V589.563C331.348 593.357 330.111 596.541 327.459 598.83L327.456 598.833C324.861 601.063 321.157 602 316.711 602C312.303 602 308.617 601.058 305.985 598.848L305.974 598.839L305.964 598.83C303.311 596.541 302.074 593.357 302.074 589.563V559.741C302.074 555.965 303.275 552.796 305.891 550.547ZM368.96 554.214C370.932 552.635 373.159 551.777 375.607 551.777C377.992 551.777 380.275 552.331 381.642 554.109C382.855 555.626 383.331 557.589 383.331 559.741V596.882H384.534V559.741C384.534 556.594 383.715 554.596 382.421 553.359C381.11 552.107 378.964 551.304 375.607 551.304C372.968 551.304 370.772 552.22 368.96 554.214ZM365.132 559.318L363.632 555.408V596.882H364.836V561.232C364.836 560.574 364.939 559.936 365.132 559.318ZM366.303 551.202C368.767 548.652 371.886 547.304 375.607 547.304C379.536 547.304 382.853 548.24 385.184 550.467C387.532 552.71 388.534 555.93 388.534 559.741V600.882H379.331V559.741C379.331 558.126 378.969 557.166 378.511 556.599L378.493 556.576L378.475 556.552C378.253 556.261 377.573 555.777 375.607 555.777C374.001 555.777 372.463 556.38 370.941 557.782C369.289 559.305 368.836 560.45 368.836 561.232V600.882H359.632V548.422H365.237L366.303 551.202ZM411.02 551.304C407.218 551.304 404.74 552.168 403.219 553.545L403.209 553.554L403.198 553.563C401.695 554.887 400.829 556.842 400.829 559.741V589.563C400.829 592.438 401.705 594.425 403.265 595.809C404.845 597.161 407.368 598 411.169 598C414.974 598 417.458 597.159 418.98 595.824C420.498 594.445 421.36 592.453 421.36 589.563V587.462H420.156V589.563C420.156 591.956 419.432 594.085 417.681 595.564C415.995 596.988 413.682 597.527 411.094 597.527C408.507 597.527 406.193 596.988 404.507 595.564C402.757 594.085 402.032 591.956 402.032 589.563V559.741C402.032 557.348 402.757 555.219 404.507 553.74C406.193 552.316 408.507 551.777 411.094 551.777C413.682 551.777 415.995 552.316 417.681 553.74C419.432 555.219 420.156 557.348 420.156 559.741V564.824H421.36V559.741C421.36 556.858 420.48 554.908 418.934 553.579L418.923 553.57L418.913 553.561C417.335 552.166 414.817 551.304 411.02 551.304ZM400.545 550.57C403.087 548.276 406.7 547.304 411.02 547.304C415.344 547.304 418.968 548.277 421.552 550.554C424.161 552.804 425.36 555.969 425.36 559.741V568.824H416.156V559.741C416.156 558.158 415.704 557.306 415.1 556.796C414.432 556.232 413.215 555.777 411.094 555.777C408.974 555.777 407.756 556.232 407.088 556.796C406.485 557.306 406.032 558.158 406.032 559.741V589.563C406.032 591.146 406.485 591.998 407.088 592.508C407.756 593.072 408.974 593.527 411.094 593.527C413.215 593.527 414.432 593.072 415.1 592.508C415.704 591.998 416.156 591.146 416.156 589.563V583.462H425.36V589.563C425.36 593.326 424.193 596.501 421.654 598.799L421.644 598.808L421.634 598.817C419.091 601.056 415.482 602 411.169 602C406.85 602 403.231 601.054 400.647 598.833L400.637 598.824L400.627 598.815C398.03 596.521 396.829 593.342 396.829 589.563V559.741C396.829 555.985 397.992 552.824 400.545 550.57ZM446.718 551.304C443.026 551.304 440.63 552.163 439.158 553.528L439.157 553.53C437.735 554.846 436.899 556.811 436.899 559.741V561.842H438.103V559.443C438.103 557.158 438.784 555.106 440.456 553.674C442.068 552.294 444.274 551.777 446.718 551.777C449.208 551.777 451.445 552.328 453.088 553.761C454.744 555.205 455.483 557.192 455.483 559.443V573.67H444.86C441.588 573.67 439.503 574.468 438.228 575.711C436.962 576.945 436.156 578.949 436.156 582.107V589.563C436.156 592.721 436.962 594.725 438.228 595.959C439.503 597.202 441.588 598 444.86 598C446.522 598 448.009 597.581 449.364 596.745C449.95 596.364 450.489 595.932 450.983 595.449C449.14 596.797 447.09 597.527 444.86 597.527C442.525 597.527 440.306 596.948 438.956 595.171C437.805 593.656 437.359 591.702 437.359 589.563V582.107C437.359 579.968 437.805 578.014 438.956 576.499C440.306 574.722 442.525 574.143 444.86 574.143H455.483V588.358L455.479 588.42C455.44 589.044 455.314 589.649 455.112 590.236L456.686 594.123V559.741C456.686 556.842 455.821 554.887 454.317 553.563L454.297 553.546L454.278 553.528C452.807 552.163 450.41 551.304 446.718 551.304ZM436.438 550.596C438.931 548.283 442.481 547.304 446.718 547.304C450.945 547.304 454.488 548.278 456.98 550.579C459.526 552.832 460.686 555.99 460.686 559.741V600.882H455.109L453.984 598.105C453.244 598.858 452.424 599.528 451.524 600.112L451.506 600.124L451.488 600.135C449.479 601.38 447.254 602 444.86 602C440.996 602 437.728 601.059 435.436 598.823C433.133 596.578 432.156 593.363 432.156 589.563V582.107C432.156 578.307 433.133 575.092 435.436 572.847C437.728 570.611 440.996 569.67 444.86 569.67H451.483V559.443C451.483 558.115 451.082 557.319 450.459 556.775C449.822 556.22 448.689 555.777 446.718 555.777C444.752 555.777 443.651 556.205 443.057 556.713C442.524 557.17 442.103 557.951 442.103 559.443V565.842H432.899V559.741C432.899 556.012 433.995 552.859 436.438 550.596ZM512.843 554.214C514.815 552.635 517.042 551.777 519.49 551.777C521.875 551.777 524.158 552.331 525.524 554.109C526.738 555.626 527.214 557.589 527.214 559.741V596.882H528.417V559.741C528.417 556.594 527.598 554.596 526.304 553.359C524.993 552.107 522.847 551.304 519.49 551.304C516.851 551.304 514.655 552.22 512.843 554.214ZM509.015 559.318L507.515 555.408V596.882H508.718V561.232C508.718 560.574 508.822 559.936 509.015 559.318ZM510.186 551.202C512.65 548.652 515.769 547.304 519.49 547.304C523.418 547.304 526.736 548.24 529.067 550.467C531.415 552.71 532.417 555.93 532.417 559.741V600.882H523.214V559.741C523.214 558.126 522.852 557.166 522.394 556.599L522.375 556.576L522.358 556.552C522.136 556.261 521.456 555.777 519.49 555.777C517.884 555.777 516.345 556.38 514.824 557.782C513.172 559.305 512.718 560.45 512.718 561.232V600.882H503.515V548.422H509.12L510.186 551.202ZM554.903 551.304C551.101 551.304 548.623 552.168 547.102 553.545L547.092 553.554L547.081 553.563C545.578 554.887 544.712 556.842 544.712 559.741V589.563C544.712 592.438 545.588 594.425 547.148 595.809C548.728 597.161 551.251 598 555.052 598C558.856 598 561.34 597.159 562.863 595.825C564.381 594.445 565.243 592.453 565.243 589.563V587.462H564.039V589.563C564.039 591.956 563.315 594.085 561.564 595.564C559.878 596.988 557.565 597.527 554.977 597.527C552.39 597.527 550.076 596.988 548.39 595.564C546.64 594.085 545.915 591.956 545.915 589.563V574.143H565.243V559.741C565.243 556.858 564.363 554.908 562.817 553.579L562.806 553.57L562.796 553.561C561.218 552.166 558.7 551.304 554.903 551.304ZM544.428 550.57C546.97 548.275 550.583 547.304 554.903 547.304C559.228 547.304 562.852 548.278 565.435 550.555C568.045 552.804 569.243 555.97 569.243 559.741V578.143H549.915V589.563C549.915 591.146 550.368 591.998 550.971 592.508C551.639 593.072 552.857 593.527 554.977 593.527C557.098 593.527 558.315 593.072 558.983 592.508C559.586 591.998 560.039 591.146 560.039 589.563V583.462H569.243V589.563C569.243 593.326 568.076 596.501 565.537 598.799L565.527 598.808L565.517 598.817C562.974 601.056 559.365 602 555.052 602C550.733 602 547.114 601.054 544.53 598.833L544.52 598.824L544.51 598.815C541.913 596.521 540.712 593.342 540.712 589.563V559.741C540.712 555.985 541.875 552.824 544.428 550.57ZM646.913 551.304C643.002 551.304 640.442 552.173 638.871 553.561L638.868 553.563C637.365 554.887 636.499 556.842 636.499 559.741C636.499 561.809 636.75 563.41 637.181 564.607C637.647 565.719 638.523 566.982 639.921 568.386C639.924 568.389 639.927 568.391 639.929 568.394L653.004 581.209L653.012 581.217C654.26 582.469 655.22 583.801 655.705 585.223C656.22 586.545 656.421 588.181 656.421 590.01C656.421 592.262 655.56 594.195 653.814 595.596C652.075 596.991 649.716 597.527 647.062 597.527C644.407 597.527 642.048 596.991 640.309 595.596C638.533 594.171 637.702 592.17 637.702 589.861V585.226H636.499V589.563C636.499 592.626 637.403 594.594 638.918 595.853C640.503 597.17 643.101 598 647.062 598C651.022 598 653.62 597.17 655.206 595.853C656.72 594.594 657.624 592.626 657.624 589.563C657.624 587.468 657.366 585.891 656.936 584.753L656.932 584.743L656.928 584.733C656.501 583.565 655.69 582.257 654.395 580.815L641.156 568.056C639.851 566.853 638.83 565.549 638.334 564.128C637.881 562.829 637.702 561.206 637.702 559.368C637.702 557.147 638.455 555.194 640.098 553.761L640.113 553.747L640.129 553.733C641.821 552.32 644.119 551.777 646.69 551.777C649.244 551.777 651.536 552.313 653.192 553.746C654.898 555.18 655.677 557.17 655.677 559.443V564.078H656.881V559.741C656.881 556.647 656.007 554.669 654.574 553.42C653.09 552.126 650.656 551.304 646.913 551.304ZM636.222 550.563C638.814 548.273 642.499 547.304 646.913 547.304C651.148 547.304 654.699 548.221 657.203 550.406C659.761 552.636 660.881 555.877 660.881 559.741V568.078H651.677V559.443C651.677 558.144 651.273 557.356 650.611 556.803L650.595 556.789L650.579 556.775C649.956 556.232 648.786 555.777 646.69 555.777C644.619 555.777 643.401 556.221 642.711 556.789C642.084 557.344 641.702 558.121 641.702 559.368C641.702 561.01 641.871 562.121 642.111 562.81C642.307 563.37 642.816 564.149 643.881 565.128L643.898 565.144L657.271 578.031L657.317 578.083C658.867 579.798 660.022 581.551 660.681 583.349C661.338 585.092 661.624 587.189 661.624 589.563C661.624 593.458 660.435 596.709 657.762 598.929C655.16 601.091 651.477 602 647.062 602C642.647 602 638.963 601.091 636.361 598.929C633.689 596.709 632.499 593.458 632.499 589.563V581.226H641.702V589.861C641.702 591.131 642.11 591.913 642.812 592.476C643.552 593.069 644.86 593.527 647.062 593.527C649.264 593.527 650.572 593.069 651.311 592.476C652.043 591.889 652.421 591.138 652.421 590.01C652.421 588.385 652.23 587.307 651.968 586.651L651.947 586.596L651.928 586.54C651.715 585.898 651.198 585.064 650.188 584.049C650.185 584.047 650.182 584.044 650.18 584.041L637.105 571.226L637.097 571.218C635.443 569.56 634.194 567.855 633.468 566.096L633.452 566.058L633.438 566.02C632.787 564.239 632.499 562.124 632.499 559.741C632.499 555.981 633.664 552.818 636.222 550.563ZM340.34 548.422H349.543V600.882H340.34V548.422ZM344.34 552.422V596.882H345.543V552.422H344.34ZM469.324 548.422H482.548C486.697 548.422 490.187 549.407 492.671 551.706C495.197 553.997 496.368 557.14 496.368 560.86V573.534C496.368 577.282 495.236 580.451 492.754 582.754L492.744 582.763L492.734 582.772C490.245 585.019 486.732 585.971 482.548 585.971H478.527V600.882H469.324V548.422ZM473.324 552.422H482.548C486.125 552.422 488.48 553.274 489.96 554.647L489.969 554.655L489.978 554.663C491.508 556.049 492.368 558.023 492.368 560.86V573.534C492.368 576.439 491.521 578.436 490.044 579.812C488.568 581.138 486.187 581.971 482.548 581.971H474.527V596.882H473.324V552.422ZM577.508 548.422H586.711V589.563C586.711 591.166 587.158 592.025 587.736 592.529C588.365 593.078 589.517 593.527 591.55 593.527C593.613 593.527 594.786 593.076 595.429 592.522C596.015 592.016 596.464 591.159 596.464 589.563V548.422H605.667V589.563C605.667 591.166 606.114 592.025 606.691 592.529C607.321 593.078 608.473 593.527 610.506 593.527C612.568 593.527 613.742 593.076 614.384 592.522C614.97 592.016 615.419 591.159 615.419 589.563V548.422H624.623V589.563C624.623 593.303 623.414 596.453 620.825 598.741C618.237 601.027 614.581 602 610.209 602C606.545 602 603.446 600.941 601.09 598.741C598.767 600.953 595.638 602 591.922 602C587.55 602 583.894 601.027 581.306 598.741C578.716 596.453 577.508 593.303 577.508 589.563V548.422ZM581.508 552.422V589.563C581.508 592.384 582.381 594.353 583.954 595.743C585.529 597.134 588.068 598 591.922 598C595.571 598 597.92 596.776 599.404 594.562L601.024 592.146L602.7 594.524C604.296 596.788 606.681 598 610.209 598C614.063 598 616.602 597.134 618.176 595.743C619.749 594.353 620.623 592.384 620.623 589.563V552.422H619.419V589.563C619.419 591.942 618.716 594.068 616.997 595.55C615.335 596.984 613.052 597.527 610.506 597.527C607.98 597.527 605.712 596.982 604.062 595.543C602.36 594.059 601.667 591.936 601.667 589.563V552.422H600.464V589.563C600.464 591.942 599.76 594.068 598.042 595.55C596.38 596.984 594.097 597.527 591.55 597.527C589.024 597.527 586.757 596.982 585.107 595.543C583.404 594.059 582.711 591.936 582.711 589.563V552.422H581.508ZM309.885 553.708C311.629 552.308 314.019 551.777 316.711 551.777C319.404 551.777 321.794 552.308 323.538 553.708C325.367 555.175 326.145 557.314 326.145 559.741V589.563C326.145 591.99 325.367 594.129 323.538 595.596C321.794 596.996 319.404 597.527 316.711 597.527C314.019 597.527 311.629 596.996 309.885 595.596C308.056 594.129 307.278 591.99 307.278 589.563V559.741C307.278 557.314 308.056 555.175 309.885 553.708ZM312.388 556.828C311.739 557.349 311.278 558.193 311.278 559.741V589.563C311.278 591.111 311.739 591.955 312.388 592.476C313.121 593.064 314.448 593.527 316.711 593.527C318.974 593.527 320.301 593.064 321.035 592.476C321.684 591.955 322.145 591.111 322.145 589.563V559.741C322.145 558.193 321.684 557.349 321.035 556.828C320.301 556.24 318.974 555.777 316.711 555.777C314.448 555.777 313.121 556.24 312.388 556.828ZM548.39 553.74C550.076 552.316 552.39 551.777 554.977 551.777C557.565 551.777 559.878 552.316 561.564 553.74C563.315 555.219 564.039 557.348 564.039 559.741V573.67H545.915V559.741C545.915 557.348 546.64 555.219 548.39 553.74ZM550.971 556.796C550.368 557.306 549.915 558.158 549.915 559.741V569.67H560.039V559.741C560.039 558.158 559.586 557.306 558.983 556.796C558.315 556.232 557.098 555.777 554.977 555.777C552.857 555.777 551.639 556.232 550.971 556.796ZM474.527 552.895H482.548C484.988 552.895 487.176 553.495 488.805 554.986C490.448 556.491 491.164 558.544 491.164 560.86V573.534C491.164 575.887 490.502 578.002 488.849 579.492C487.236 580.947 485.014 581.498 482.548 581.498H474.527V552.895ZM478.527 556.895H482.548C484.37 556.895 485.453 557.34 486.104 557.936C486.74 558.519 487.164 559.397 487.164 560.86V573.534C487.164 575.157 486.723 576.023 486.171 576.521C485.579 577.055 484.493 577.498 482.548 577.498H478.527V556.895ZM444.86 578.143C443.033 578.143 442.377 578.608 442.141 578.919C441.707 579.491 441.359 580.469 441.359 582.107V589.563C441.359 591.201 441.707 592.18 442.141 592.752C442.377 593.062 443.033 593.527 444.86 593.527C446.374 593.527 447.844 592.967 449.316 591.659C450.872 590.225 451.411 589.078 451.483 588.224V578.143H444.86Z"
        fill="#2F2F2F"></path>
</svg>