<svg width="24" height="24" viewBox="0 0 24 24" fill="none" xmlns="http://www.w3.org/2000/svg">
<path d="M12 24C18.6274 24 24 18.6274 24 12C24 5.37258 18.6274 0 12 0C5.37258 0 0 5.37258 0 12C0 18.6274 5.37258 24 12 24Z" fill="#FF007A"/>
<path d="M9.19576 4.32555C8.98201 4.29255 8.97301 4.28805 9.07351 4.27305C9.26626 4.24305 9.72226 4.2843 10.0365 4.35855C10.7693 4.5333 11.436 4.97955 12.1485 5.7723L12.3375 5.9823L12.6075 5.93955C13.7475 5.7558 14.9078 5.90205 15.8775 6.3498C16.1445 6.4728 16.5653 6.71805 16.6178 6.7818C16.635 6.8013 16.6658 6.93105 16.686 7.06905C16.758 7.5468 16.722 7.9128 16.5765 8.18655C16.497 8.33505 16.4925 8.38155 16.5458 8.50905C16.571 8.56171 16.6106 8.60622 16.6599 8.63751C16.7092 8.6688 16.7663 8.68562 16.8248 8.68605C17.0663 8.68605 17.3258 8.29605 17.4458 7.7538L17.4938 7.53855L17.5883 7.6458C18.1073 8.2338 18.5145 9.03555 18.5843 9.60555L18.603 9.7548L18.5153 9.6198C18.3653 9.3873 18.2153 9.2283 18.0218 9.10005C17.6738 8.8698 17.3055 8.7918 16.3305 8.74005C15.45 8.69355 14.9513 8.61855 14.4578 8.4573C13.617 8.18355 13.1933 7.8183 12.1943 6.50805C11.751 5.92605 11.4765 5.6043 11.2043 5.34555C10.584 4.75605 9.97501 4.44705 9.19576 4.32555Z" fill="white"/>
<path d="M16.8165 5.62523C16.839 5.23523 16.8915 4.97798 16.998 4.74323C17.04 4.65023 17.0797 4.57373 17.0857 4.57373C17.0791 4.62638 17.0652 4.67786 17.0445 4.72673C16.9672 4.95473 16.9545 5.26673 17.0077 5.62898C17.0752 6.08948 17.1142 6.15548 17.6002 6.65273C17.829 6.88598 18.0945 7.17998 18.1905 7.30673L18.3652 7.53623L18.1905 7.37198C17.9767 7.17173 17.4847 6.77948 17.376 6.72398C17.3032 6.68648 17.292 6.68723 17.247 6.73148C17.2057 6.77348 17.1967 6.83498 17.1915 7.12823C17.1825 7.58423 17.1202 7.87823 16.9695 8.17073C16.8885 8.32823 16.8757 8.29523 16.9492 8.11598C17.004 7.98248 17.0092 7.92398 17.0092 7.48223C17.0092 6.59423 16.9035 6.38123 16.2847 6.01523C16.0986 5.9072 15.9074 5.80808 15.7117 5.71823C15.6151 5.67947 15.5214 5.63385 15.4312 5.58173C15.4485 5.56448 16.0515 5.73998 16.2937 5.83373C16.6552 5.97248 16.7145 5.99048 16.7587 5.97323C16.788 5.96198 16.8022 5.87648 16.8165 5.62523ZM9.61125 7.14398C9.177 6.54623 8.9085 5.62898 8.96625 4.94348L8.98425 4.73123L9.08325 4.74923C9.26925 4.78298 9.5895 4.90223 9.7395 4.99373C10.1505 5.24348 10.329 5.57273 10.5097 6.41723C10.563 6.66473 10.6327 6.94448 10.665 7.03973C10.716 7.19198 10.911 7.54823 11.07 7.77998C11.184 7.94648 11.1075 8.02523 10.8555 8.00273C10.47 7.96748 9.948 7.60748 9.61125 7.14398ZM16.29 11.5952C14.2597 10.7777 13.545 10.0682 13.545 8.87123C13.545 8.69498 13.551 8.55098 13.5577 8.55098C13.5652 8.55098 13.644 8.60873 13.7325 8.67998C14.1442 9.00998 14.6055 9.15098 15.8812 9.33698C16.632 9.44723 17.055 9.53573 17.445 9.66473C18.684 10.0757 19.4505 10.9097 19.6335 12.0452C19.686 12.3752 19.6552 12.994 19.569 13.3202C19.5015 13.5782 19.2937 14.0425 19.239 14.0605C19.224 14.065 19.209 14.0072 19.2045 13.927C19.1835 13.501 18.9682 13.0855 18.606 12.7742C18.1942 12.421 17.6415 12.139 16.2892 11.5952H16.29ZM14.865 11.9342C14.841 11.7894 14.8082 11.6461 14.7667 11.5052L14.7142 11.3507L14.811 11.4587C14.9437 11.6087 15.0495 11.7992 15.138 12.0542C15.2062 12.2485 15.2137 12.3062 15.213 12.622C15.213 12.9325 15.2047 12.997 15.1417 13.1725C15.0542 13.4298 14.9075 13.6631 14.7135 13.8535C14.3422 14.2315 13.866 14.44 13.1775 14.527C13.0575 14.542 12.7095 14.5675 12.4027 14.5832C11.6302 14.6237 11.1225 14.7062 10.6657 14.8667C10.6246 14.8852 10.5803 14.8959 10.5352 14.8982C10.5172 14.8795 10.8277 14.6942 11.085 14.5705C11.4472 14.3957 11.8072 14.3005 12.615 14.1662C13.014 14.0995 13.4265 14.0192 13.5307 13.987C14.5192 13.684 15.027 12.9025 14.8642 11.9342H14.865Z" fill="white"/>
<path d="M15.795 13.587C15.525 13.0072 15.4635 12.447 15.6112 11.925C15.627 11.8695 15.6525 11.8237 15.6675 11.8237C15.7183 11.8421 15.766 11.8679 15.8092 11.9002C15.9337 11.9842 16.1827 12.1252 16.8465 12.4867C17.6752 12.939 18.1477 13.2892 18.4695 13.6882C18.7507 14.0385 18.9247 14.4375 19.0087 14.9235C19.056 15.1987 19.0282 15.861 18.9577 16.1385C18.735 17.013 18.2167 17.7 17.4787 18.1005C17.4091 18.1408 17.3369 18.1766 17.2627 18.2077C17.2522 18.2077 17.2912 18.108 17.3505 17.985C17.598 17.466 17.6272 16.9605 17.439 16.398C17.3242 16.0537 17.0895 15.633 16.6162 14.9235C16.0657 14.0985 15.9307 13.878 15.795 13.587ZM8.16975 16.7152C8.9235 16.0792 9.86025 15.6277 10.7145 15.489C11.082 15.429 11.6955 15.453 12.036 15.54C12.582 15.6795 13.071 15.993 13.3252 16.3657C13.5727 16.7302 13.68 17.0482 13.7902 17.7547C13.8352 18.0337 13.8825 18.3135 13.8967 18.3772C13.9792 18.7432 14.142 19.0365 14.343 19.1835C14.6617 19.4167 15.2115 19.431 15.7515 19.221C15.8079 19.1951 15.8674 19.1764 15.9285 19.1655C15.948 19.185 15.6765 19.3672 15.4845 19.4632C15.2579 19.5845 15.0042 19.6459 14.7472 19.6417C14.2522 19.6417 13.8412 19.3905 13.4985 18.8767C13.431 18.7755 13.2795 18.4732 13.161 18.204C12.7995 17.379 12.621 17.127 12.201 16.8517C11.8342 16.6117 11.3625 16.569 11.0077 16.743C10.5412 16.9717 10.4115 17.568 10.7452 17.9452C10.878 18.0952 11.1255 18.225 11.328 18.2497C11.4163 18.2614 11.5062 18.254 11.5914 18.228C11.6766 18.202 11.7553 18.1581 11.822 18.099C11.8888 18.04 11.9421 17.9674 11.9784 17.886C12.0147 17.8046 12.033 17.7163 12.0322 17.6272C12.0322 17.3782 11.9362 17.2372 11.6962 17.1285C11.3685 16.9807 11.016 17.1532 11.0175 17.4615C11.0182 17.5927 11.0752 17.6752 11.2072 17.7352C11.292 17.7727 11.2935 17.7765 11.2245 17.7622C10.9237 17.6992 10.8532 17.337 11.0955 17.0962C11.3857 16.8067 11.9865 16.9342 12.1927 17.3287C12.2797 17.4945 12.2895 17.8252 12.2137 18.0247C12.045 18.471 11.5515 18.705 11.0512 18.5775C10.7107 18.4905 10.572 18.3967 10.1617 17.9737C9.4485 17.2387 9.17175 17.0962 8.14275 16.9357L7.9455 16.905L8.1705 16.7152H8.16975Z" fill="white"/>
<path fill-rule="evenodd" clip-rule="evenodd" d="M4.647 2.51265L4.719 2.6004C7.5 6.0054 8.937 7.7724 9.0285 7.8984C9.1785 8.1069 9.12225 8.29365 8.86425 8.44065C8.721 8.5224 8.4255 8.6049 8.2785 8.6049C8.11125 8.6049 7.923 8.52465 7.78575 8.3949C7.689 8.30265 7.29825 7.71915 6.396 6.3189C5.97349 5.6571 5.54548 4.99882 5.112 4.34415C5.07525 4.30965 5.076 4.3104 6.3255 6.54615C7.11 7.95015 7.3755 8.4459 7.3755 8.51265C7.3755 8.64765 7.338 8.71815 7.1715 8.90415C6.894 9.2139 6.77025 9.5619 6.68025 10.2819C6.57975 11.0896 6.29775 11.6596 5.51475 12.6354C5.05725 13.2069 4.98225 13.3119 4.866 13.5421C4.7205 13.8316 4.68075 13.9944 4.66425 14.3604C4.647 14.7474 4.68075 14.9979 4.79925 15.3676C4.90275 15.6916 5.01075 15.9061 5.28675 16.3336C5.52525 16.7034 5.6625 16.9779 5.6625 17.0851C5.6625 17.1706 5.679 17.1706 6.04875 17.0874C6.933 16.8879 7.65075 16.5361 8.055 16.1056C8.30475 15.8394 8.36325 15.6924 8.3655 15.3271C8.36625 15.0886 8.358 15.0384 8.2935 14.9011C8.1885 14.6776 7.99725 14.4916 7.57575 14.2036C7.023 13.8256 6.7875 13.5211 6.72225 13.1034C6.66825 12.7606 6.7305 12.5184 7.0365 11.8779C7.35225 11.2149 7.431 10.9329 7.48425 10.2646C7.518 9.83265 7.56525 9.6624 7.68975 9.5259C7.81875 9.3834 7.93575 9.33465 8.256 9.29115C8.778 9.2199 9.11025 9.0849 9.38325 8.83365C9.62025 8.61465 9.71925 8.4039 9.73425 8.0874L9.74625 7.8474L9.6135 7.6929C9.423 7.4709 7.84725 5.7324 4.8855 2.4759L4.806 2.38965L4.647 2.5134V2.51265ZM5.9325 14.7991C5.98483 14.7065 6.00045 14.5976 5.97628 14.494C5.95212 14.3903 5.88992 14.2996 5.802 14.2396C5.631 14.1256 5.36475 14.1796 5.36475 14.3281C5.36475 14.3731 5.3895 14.4061 5.44575 14.4354C5.541 14.4841 5.54775 14.5396 5.4735 14.6514C5.39775 14.7654 5.40375 14.8659 5.49075 14.9341C5.63025 15.0436 5.82825 14.9829 5.93325 14.7991H5.9325ZM10.0755 9.41715C9.83025 9.49215 9.5925 9.7524 9.51825 10.0246C9.47325 10.1904 9.49875 10.4821 9.56625 10.5721C9.675 10.7176 9.78075 10.7559 10.0658 10.7536C10.6238 10.7499 11.1083 10.5106 11.1653 10.2114C11.2118 9.96615 10.998 9.6264 10.7048 9.4764C10.5533 9.3999 10.2315 9.36915 10.0755 9.41715ZM10.728 9.92715C10.8143 9.8049 10.776 9.67215 10.6305 9.58365C10.3515 9.4134 9.93 9.55365 9.93 9.81765C9.93 9.94815 10.1498 10.0914 10.3508 10.0914C10.4858 10.0914 10.6688 10.0111 10.728 9.92715Z" fill="white"/>
</svg>
