<svg width="24" height="24" viewBox="0 0 24 24" fill="none" xmlns="http://www.w3.org/2000/svg">
<circle cx="12" cy="12" r="12" fill="#2350FF"/>
<path d="M7.12415 9.52196C6.95862 9.35642 6.95862 9.08804 7.12415 8.92251L8.92251 7.12415C9.08804 6.95862 9.35642 6.95862 9.52196 7.12415L11.3203 8.92251C11.4858 9.08804 11.4858 9.35642 11.3203 9.52196L9.52196 11.3203C9.35642 11.4858 9.08804 11.4858 8.92251 11.3203L7.12415 9.52196Z" fill="white"/>
<path d="M12.6797 9.52196C12.5142 9.35642 12.5142 9.08804 12.6797 8.92251L14.4781 7.12415C14.6436 6.95862 14.912 6.95862 15.0775 7.12415L16.8759 8.92251C17.0414 9.08804 17.0414 9.35642 16.8759 9.52196L15.0775 11.3203C14.912 11.4858 14.6436 11.4858 14.4781 11.3203L12.6797 9.52196Z" fill="white"/>
<path d="M12.6797 15.0776C12.5142 14.9121 12.5142 14.6437 12.6797 14.4782L14.4781 12.6798C14.6436 12.5143 14.912 12.5143 15.0775 12.6798L16.8759 14.4782C17.0414 14.6437 17.0414 14.9121 16.8759 15.0776L15.0775 16.876C14.912 17.0415 14.6436 17.0415 14.4781 16.876L12.6797 15.0776Z" fill="white"/>
<path d="M7.12414 15.0776C6.9586 14.9121 6.9586 14.6437 7.12414 14.4782L8.92249 12.6798C9.08802 12.5143 9.35641 12.5143 9.52194 12.6798L11.3203 14.4782C11.4858 14.6437 11.4858 14.9121 11.3203 15.0776L9.52194 16.876C9.35641 17.0415 9.08802 17.0415 8.92249 16.876L7.12414 15.0776Z" fill="white"/>
</svg>
