<svg width="135" height="45" viewBox="0 0 135 45" fill="none" xmlns="http://www.w3.org/2000/svg">
<rect width="135" height="45" rx="5" fill="white" fill-opacity="0.12"/>
<path fill-rule="evenodd" clip-rule="evenodd" d="M48.9347 13.1183C48.9659 13.8009 48.7202 14.4667 48.2549 14.9602C47.735 15.5089 47.0099 15.8069 46.2607 15.7798C45.1117 15.7707 44.08 15.0626 43.6426 13.983C43.2053 12.9033 43.4476 11.6626 44.2575 10.8343C44.7837 10.2885 45.5089 9.98847 46.2607 10.0055C46.6439 10.0042 47.0234 10.0825 47.3757 10.2357C47.7037 10.3701 47.9957 10.5816 48.2277 10.8528L47.7473 11.3409C47.3805 10.8976 46.8299 10.6554 46.2607 10.687C45.6886 10.6841 45.1401 10.9182 44.7416 11.3353C44.343 11.7523 44.129 12.3163 44.1487 12.8973C44.1366 13.7751 44.6454 14.5742 45.4385 14.9227C46.2316 15.2712 47.1532 15.1007 47.7745 14.4905C48.0534 14.1834 48.2143 13.7846 48.2277 13.3669H46.2607V12.7039H48.8985C48.9227 12.8406 48.9348 12.9793 48.9347 13.1183ZM53.0863 10.8159H50.6389V12.5657H52.8687V13.2288H50.6389V14.9786H53.0863V15.6601H49.9137V10.1344H53.0863V10.8159ZM56.0594 15.6601H55.3615V10.8159H53.8386V10.1344H57.6185V10.8159H56.0594V15.6601ZM60.2835 15.6601V10.1344H60.9814V15.6601H60.2835ZM64.0815 15.6601H63.3835V10.8159H61.8607V10.1344H65.5952V10.8159H64.0815V15.6601ZM72.6746 14.9418C71.5714 16.0563 69.7894 16.0563 68.6862 14.9418C67.6169 13.7917 67.6169 11.9936 68.6862 10.8436C69.2138 10.3036 69.9316 10 70.6804 10C71.4292 10 72.147 10.3036 72.6746 10.8436C73.7485 11.9918 73.7485 13.7936 72.6746 14.9418ZM69.2029 14.4813C70.0199 15.3079 71.3409 15.3079 72.1579 14.4813C72.9603 13.5826 72.9603 12.2119 72.1579 11.3132C71.3409 10.4866 70.0199 10.4866 69.2029 11.3132C68.4005 12.2119 68.4005 13.5826 69.2029 14.4813ZM74.4603 15.6601V10.1344H75.3124L77.9592 14.4352V10.1344H78.6571V15.6601H77.932L75.1673 11.1567V15.6601H74.4603ZM67.7163 23.7184C68.7456 23.6983 69.7389 24.1036 70.4685 24.8415C71.1982 25.5793 71.6018 26.5865 71.5869 27.6324C71.5868 29.7916 69.8657 31.543 67.7405 31.5463C65.6152 31.5497 63.8887 29.8038 63.8821 27.6446C63.8754 25.4854 65.5911 23.7285 67.7163 23.7184ZM67.7163 30.0084C68.3176 29.9942 68.8877 29.7339 69.2973 29.2866C69.7069 28.8392 69.9213 28.2427 69.8918 27.6324C69.8895 26.6568 69.3004 25.7818 68.4063 25.4259C67.5122 25.07 66.4949 25.3055 65.8409 26.0198C65.1868 26.7342 65.0291 27.7821 65.443 28.6624C65.8569 29.5427 66.7584 30.0765 67.7163 30.0084ZM59.2773 23.7184H59.2682C60.2976 23.6983 61.2908 24.1036 62.0205 24.8415C62.7501 25.5793 63.1537 26.5865 63.1388 27.6324C63.1388 29.7928 61.4158 31.5447 59.2894 31.5464C57.1629 31.5481 55.4373 29.7989 55.434 27.6385C55.4306 25.4781 57.1509 23.7234 59.2773 23.7184ZM59.2773 30.0084H59.2682C59.8695 29.9942 60.4396 29.7339 60.8492 29.2866C61.2588 28.8392 61.4732 28.2427 61.4437 27.6324C61.4411 26.656 60.8509 25.7806 59.9557 25.4255C59.0605 25.0704 58.0426 25.3078 57.3895 26.0241C56.7364 26.7404 56.5811 27.7897 56.9979 28.6694C57.4148 29.5492 58.3189 30.0803 59.2773 30.0084ZM49.2248 24.9248L54.7269 24.8788C54.7902 25.2219 54.8205 25.5704 54.8176 25.9194C54.8602 27.3522 54.3532 28.7457 53.4035 29.8058C52.3183 30.9604 50.7946 31.5816 49.2248 31.5096C47.0303 31.5963 44.9649 30.4563 43.8422 28.5385C42.7195 26.6208 42.7195 24.2327 43.8422 22.3149C44.9649 20.3971 47.0303 19.2571 49.2248 19.3439C50.7664 19.3303 52.2477 19.9516 53.331 21.066L52.1798 22.2356C51.3856 21.4566 50.3196 21.0293 49.2157 21.0476C46.8128 21.0476 44.8648 23.0268 44.8648 25.4682C44.8648 27.9095 46.8128 29.8887 49.2157 29.8887C50.3457 29.9344 51.442 29.4929 52.2342 28.673C52.7598 28.1 53.0793 27.3633 53.1407 26.5825H49.2248V24.9248ZM90.2959 26.2141L90.4863 26.6285L85.3286 28.7928C85.6519 29.5408 86.3924 30.0119 87.1959 29.9808C87.9717 29.9828 88.6913 29.57 89.0904 28.8941L90.4047 29.815C89.6892 30.9031 88.4838 31.5534 87.1959 31.5464C86.1721 31.5616 85.1862 31.1533 84.4648 30.4151C83.7434 29.6769 83.3484 28.6724 83.3707 27.6324C83.308 26.6161 83.6622 25.6189 84.3491 24.8774C85.0359 24.1359 85.9943 23.7164 86.9965 23.7184C88.4993 23.7746 89.812 24.7675 90.2959 26.2141ZM85.0385 27.5219L88.483 26.0668C88.2121 25.524 87.6485 25.1979 87.0508 25.2379C86.4838 25.2639 85.951 25.5207 85.5724 25.9504C85.1938 26.38 85.0014 26.9464 85.0385 27.5219ZM80.8507 31.3162V19.8043H82.5458V31.3162H80.8507ZM78.077 24.5933V23.9486H79.6361V30.9201C79.6361 33.8119 77.9954 34.9999 76.0103 34.9999C74.514 35.009 73.162 34.0945 72.593 32.6884L74.0705 32.0621C74.3794 32.8827 75.1458 33.4322 76.0103 33.4527C77.2793 33.4527 78.068 32.6515 78.068 31.1504V30.5886H78.0136C77.5042 31.1856 76.7607 31.5228 75.9831 31.5096C73.9256 31.4082 72.3087 29.6838 72.3087 27.5909C72.3087 25.4981 73.9256 23.7737 75.9831 23.6723C76.7582 23.6713 77.4969 24.0063 78.0136 24.5933H78.077ZM76.1372 30.0084H76.1282C76.7173 29.9854 77.2714 29.7184 77.6618 29.2696C78.0522 28.8208 78.2448 28.2292 78.1949 27.6324C78.2396 27.0383 78.0464 26.451 77.659 26.0037C77.2716 25.5564 76.7229 25.2869 76.1372 25.2563C74.9252 25.3649 73.9956 26.3962 73.9956 27.6324C73.9956 28.8686 74.9252 29.8999 76.1372 30.0084ZM98.2455 19.8043C99.5622 19.7082 100.822 20.3675 101.509 21.5127C102.196 22.658 102.196 24.0973 101.509 25.2425C100.822 26.3877 99.5622 27.047 98.2455 26.9509H95.8796V31.3162H94.1846V19.8043H98.2455ZM98.2364 25.33L98.2727 25.3576C99.3465 25.3576 100.217 24.4732 100.217 23.3822C100.217 22.2912 99.3465 21.4068 98.2727 21.4068H95.8706V25.33H98.2364ZM108.688 23.6723L108.733 23.6999C110.664 23.6999 112.168 24.8695 112.168 26.8864V31.3162H110.537V30.3952H110.482C110.011 31.14 109.177 31.5638 108.307 31.5003C107.601 31.5533 106.905 31.3141 106.376 30.8371C105.846 30.3601 105.529 29.6858 105.497 28.9677C105.497 27.3008 107.138 26.3799 108.76 26.3799C109.376 26.3772 109.983 26.5291 110.528 26.8219V26.7022C110.485 26.2598 110.268 25.8535 109.927 25.5747C109.586 25.2959 109.15 25.1679 108.715 25.2195C108.081 25.1669 107.477 25.4992 107.174 26.0668L105.669 25.4313C106.241 24.2867 107.427 23.5957 108.688 23.6723ZM108.479 29.9808L108.525 30.0084C109.546 29.9831 110.392 29.1974 110.51 28.1665C110.039 27.8998 109.507 27.7662 108.969 27.7797C108.117 27.7797 107.156 28.0836 107.156 29.0046C107.156 29.6953 107.926 29.9808 108.479 29.9808ZM118.115 23.9486H120L115.359 34.8065H113.592L115.314 30.9294L112.295 23.9486H114.108L116.121 28.9401H116.175L118.115 23.9486ZM102.877 31.3162V19.8043H104.572V31.3162H102.877ZM36.7208 21.7513C36.9433 21.8799 37.0762 22.1102 37.0761 22.3671C37.0761 22.6241 36.9432 22.8543 36.7208 22.9826L32.6832 25.3131L29.8489 22.5732L32.9501 19.5754L36.7208 21.7513ZM32.3101 19.2057L29.3378 22.0791L19.0665 12.15L28.1605 16.8102L32.3101 19.2057ZM19.2176 32.85L29.3378 23.0673L32.0432 25.6827L28.1761 27.9151L19.2176 32.85ZM18.4598 12.5519L28.8267 22.573L18.4502 32.6038L18.4598 12.5519Z" fill="white"/>
</svg>
