<svg width="20" height="20" viewBox="0 0 20 20" fill="none" xmlns="http://www.w3.org/2000/svg">
<path d="M4.53003 15.7461L8.02981 2.03438L10.7766 1.11108L6.46389 18.0301C6.43822 18.1515 6.44678 18.2082 6.50668 18.2082C6.55802 18.2082 6.69493 18.0463 6.73771 17.8762C8.20094 12.6118 9.80109 9.7771 11.5895 8.61083C12.2655 8.29496 12.7276 8.35166 13.0441 8.65943C14.0796 9.70421 13.3608 11.5589 12.0772 15.819C11.9746 16.1673 11.8377 17.3012 11.9318 17.5603C12.5565 18.3135 13.9256 17.5441 15.4572 16.6775C15.6112 16.7828 15.577 16.9124 15.4059 17.0663C14.456 18.2082 13.3009 18.6942 12.0088 18.7752C10.46 18.8481 9.60428 18.1515 9.5016 16.6209C9.4417 15.7866 10.537 12.1744 11.3585 9.31545C11.367 9.29925 11.367 9.26685 11.3328 9.25066C11.3071 9.24256 11.2729 9.26685 11.2472 9.28305C10.1434 9.89048 7.6533 16.0134 6.95163 17.8114C6.81472 18.1678 6.76339 18.2892 6.42111 18.6536C6.13018 18.9776 5.41139 19.0343 4.92364 18.3864C4.54714 17.9005 4.30756 16.7019 4.53003 15.7461Z" fill="white"/>
</svg>
