<svg width="135" height="45" viewBox="0 0 135 45" fill="none" xmlns="http://www.w3.org/2000/svg">
<rect width="135" height="45" rx="5" fill="white" fill-opacity="0.12"/>
<path fill-rule="evenodd" clip-rule="evenodd" d="M52.1346 28.1692H47.8465L46.8167 31.2505H45.0004L49.0621 19.8506H50.9491L55.0108 31.2505H53.1635L52.1346 28.1692ZM48.2906 26.7474H51.6897L50.014 21.7467H49.9671L48.2906 26.7474ZM63.7826 27.0952C63.7826 29.678 62.4184 31.3374 60.3597 31.3374C59.2956 31.3938 58.2932 30.829 57.779 29.8833H57.7401V34H56.0565V22.9391H57.6861V24.3215H57.7171C58.2542 23.3816 59.2576 22.8171 60.3287 22.8521C62.4104 22.8521 63.7826 24.5196 63.7826 27.0952ZM62.0521 27.0952C62.0521 25.4125 61.194 24.3062 59.8846 24.3062C58.5983 24.3062 57.733 25.4358 57.733 27.0952C57.733 28.7699 58.5983 29.8914 59.8846 29.8914C61.194 29.8914 62.0521 28.7932 62.0521 27.0952ZM72.8101 27.0952C72.8101 29.678 71.4459 31.3374 69.3872 31.3374C68.3231 31.3938 67.3207 30.829 66.8065 29.8833H66.7676V34H65.084V22.9391H66.7136V24.3215H66.7446C67.2816 23.3816 68.285 22.8171 69.3562 22.8521C71.4379 22.8521 72.8101 24.5196 72.8101 27.0952ZM71.0796 27.0952C71.0796 25.4125 70.2215 24.3062 68.9121 24.3062C67.6258 24.3062 66.7605 25.4358 66.7605 27.0952C66.7605 28.7699 67.6258 29.8914 68.9121 29.8914C70.2215 29.8914 71.0796 28.7932 71.0796 27.0952ZM78.7766 28.0742C78.9013 29.2047 79.9851 29.9469 81.466 29.9469C82.8851 29.9469 83.9061 29.2046 83.9061 28.1853C83.9061 27.3005 83.2903 26.7707 81.8323 26.4076L80.3743 26.0517C78.3086 25.546 77.3495 24.5671 77.3495 22.9785C77.3495 21.0116 79.0411 19.6605 81.4431 19.6605C83.8202 19.6605 85.4499 21.0116 85.5047 22.9785H83.8052C83.7034 21.8408 82.7754 21.1541 81.4191 21.1541C80.0629 21.1541 79.1348 21.8489 79.1348 22.8601C79.1348 23.6661 79.7276 24.1403 81.1776 24.5034L82.4171 24.8118C84.7253 25.3649 85.6843 26.3045 85.6843 27.9719C85.6843 30.1047 84.0078 31.4404 81.3413 31.4404C78.8464 31.4404 77.162 30.136 77.0531 28.0741L78.7766 28.0742ZM89.3178 20.9722V22.9391H90.8775V24.2901H89.3178V28.8721C89.3178 29.5839 89.6301 29.9156 90.3157 29.9156C90.5009 29.9123 90.6858 29.8991 90.8696 29.8761V31.2191C90.5613 31.2774 90.248 31.3039 89.9344 31.2979C88.2738 31.2979 87.6262 30.6659 87.6262 29.054V24.2901H86.4337V22.9391H87.6262V20.9722H89.3178ZM91.7808 27.0952C91.7808 24.4801 93.3007 22.8369 95.6709 22.8369C98.049 22.8369 99.5618 24.4801 99.5618 27.0952C99.5618 29.7175 98.0569 31.3536 95.6709 31.3536C93.2857 31.3536 91.7808 29.7175 91.7808 27.0952ZM97.8464 27.0952C97.8464 25.3013 97.0351 24.2426 95.6709 24.2426C94.3067 24.2426 93.4963 25.3094 93.4963 27.0952C93.4963 28.8963 94.3067 29.947 95.6709 29.947C97.0351 29.947 97.8464 28.8963 97.8464 27.0952ZM100.95 22.9391H102.556V24.3537H102.595C102.818 23.443 103.642 22.8163 104.567 22.8521C104.761 22.8514 104.955 22.8728 105.144 22.9157V24.5115C104.899 24.4357 104.644 24.4008 104.388 24.4084C103.893 24.3881 103.414 24.588 103.077 24.9556C102.739 25.3232 102.577 25.8219 102.633 26.3206V31.2505H100.95L100.95 22.9391ZM112.907 28.8093C112.68 30.3181 111.23 31.3536 109.375 31.3536C106.989 31.3536 105.508 29.7336 105.508 27.1347C105.508 24.5277 106.997 22.8369 109.304 22.8369C111.573 22.8369 113 24.4165 113 26.9365V27.521H107.207V27.6241C107.153 28.2429 107.364 28.8554 107.786 29.3058C108.208 29.7562 108.801 30.0012 109.414 29.9783C110.231 30.0559 111.001 29.5805 111.308 28.8093L112.907 28.8093ZM107.215 26.3287L111.316 26.3287C111.346 25.7727 111.147 25.229 110.765 24.8286C110.383 24.4281 109.854 24.2073 109.304 24.2193C108.75 24.2159 108.218 24.4368 107.826 24.833C107.434 25.2291 107.214 25.7676 107.215 26.3287ZM48.0796 11.2699C48.7943 11.2179 49.4944 11.4935 49.9871 12.0207C50.4798 12.5479 50.7132 13.2713 50.6231 13.9916C50.6231 15.7416 49.6898 16.7475 48.0796 16.7475H46.1271V11.2699H48.0796ZM46.9666 15.9729H47.9858C48.4966 16.0038 48.9939 15.7999 49.3398 15.4177C49.6856 15.0355 49.8431 14.5158 49.7685 14.0028C49.8377 13.492 49.6779 12.9765 49.3329 12.5975C48.988 12.2184 48.4939 12.0154 47.9858 12.044H46.9666V15.9729ZM51.5715 14.6788C51.5016 13.9378 51.8522 13.2208 52.4763 12.8283C53.1004 12.4358 53.8902 12.4358 54.5143 12.8283C55.1384 13.2208 55.489 13.9378 55.4191 14.6788C55.4904 15.4205 55.1401 16.139 54.5154 16.5323C53.8907 16.9256 53.0999 16.9256 52.4752 16.5323C51.8505 16.139 51.5002 15.4205 51.5715 14.6788ZM54.591 14.6788C54.591 13.7827 54.1938 13.2587 53.4966 13.2587C52.7968 13.2587 52.4032 13.7827 52.4032 14.6788C52.4032 15.582 52.7969 16.102 53.4966 16.102C54.1938 16.102 54.591 15.5784 54.591 14.6788ZM60.5336 16.7474H59.6984L58.8553 13.7029H58.7916L57.952 16.7474H57.1248L56.0003 12.6137H56.8169L57.5477 15.768H57.6078L58.4465 12.6137H59.2189L60.0576 15.768H60.1213L60.8485 12.6137H61.6536L60.5336 16.7474ZM62.5993 12.6137H63.3743V13.2704H63.4345C63.6437 12.7869 64.1326 12.4911 64.6518 12.5339C65.0539 12.5033 65.4479 12.6596 65.7226 12.9587C65.9973 13.2578 66.1228 13.6672 66.0638 14.0714V16.7474H65.2587V14.2762C65.2587 13.6119 64.9739 13.2816 64.3785 13.2816C64.1057 13.2687 63.8411 13.3772 63.6539 13.5785C63.4666 13.7799 63.3755 14.054 63.4044 14.3291V16.7474H62.5993L62.5993 12.6137ZM67.3466 11H68.1517V16.7474H67.3466V11ZM69.2709 14.6788C69.201 13.9378 69.5516 13.2207 70.1758 12.8282C70.8 12.4358 71.5898 12.4358 72.2139 12.8282C72.8381 13.2207 73.1888 13.9378 73.1189 14.6788C73.1901 15.4205 72.8397 16.139 72.215 16.5323C71.5903 16.9256 70.7995 16.9256 70.1747 16.5323C69.55 16.139 69.1997 15.4205 69.2709 14.6788ZM72.2904 14.6788C72.2904 13.7827 71.8931 13.2587 71.196 13.2587C70.4962 13.2587 70.1025 13.7827 70.1025 14.6788C70.1025 15.582 70.4962 16.102 71.196 16.102C71.8931 16.102 72.2904 15.5784 72.2904 14.6788ZM73.9664 15.5784C73.9664 14.8343 74.5132 14.4053 75.4837 14.3444L76.5887 14.2798V13.923C76.5887 13.4864 76.3038 13.2399 75.7535 13.2399C75.3041 13.2399 74.9927 13.4071 74.9033 13.6994H74.1239C74.2062 12.9893 74.8653 12.5339 75.7907 12.5339C76.8134 12.5339 77.3902 13.0498 77.3902 13.923V16.7474H76.6152V16.1665H76.5515C76.2883 16.5907 75.8202 16.8387 75.3262 16.8155C74.9799 16.852 74.6345 16.7384 74.3755 16.5027C74.1164 16.267 73.9678 15.9312 73.9664 15.5784ZM76.5887 15.2252V14.8796L75.5925 14.9441C75.0307 14.9822 74.7759 15.1759 74.7759 15.5403C74.7759 15.9123 75.0944 16.1288 75.5324 16.1288C75.7916 16.1554 76.0505 16.0743 76.2496 15.9039C76.4487 15.7336 76.5711 15.4886 76.5887 15.2252ZM78.4483 14.6788C78.4483 13.3726 79.111 12.5451 80.1416 12.5451C80.6621 12.5208 81.1495 12.8034 81.3926 13.2703H81.4528V11H82.2579V16.7474H81.4864V16.0943H81.4227C81.1612 16.5574 80.6678 16.8352 80.1417 16.8155C79.1039 16.8156 78.4483 15.9881 78.4483 14.6788ZM79.28 14.6788C79.28 15.5555 79.6878 16.0831 80.3699 16.0831C81.0485 16.0831 81.4678 15.5479 81.4678 14.6824C81.4678 13.8208 81.0441 13.278 80.3699 13.278C79.6922 13.278 79.28 13.8092 79.28 14.6788ZM85.5888 14.6788C85.5188 13.9378 85.8694 13.2208 86.4936 12.8283C87.1177 12.4358 87.9074 12.4358 88.5315 12.8283C89.1557 13.2208 89.5063 13.9378 89.4363 14.6788C89.5076 15.4205 89.1573 16.139 88.5326 16.5323C87.908 16.9256 87.1171 16.9256 86.4925 16.5323C85.8678 16.139 85.5175 15.4205 85.5888 14.6788ZM88.6082 14.6788C88.6082 13.7827 88.211 13.2587 87.5139 13.2587C86.8141 13.2587 86.4204 13.7827 86.4204 14.6788C86.4204 15.582 86.8141 16.102 87.5139 16.102C88.211 16.102 88.6082 15.5784 88.6082 14.6788ZM90.5166 12.6137H91.2916V13.2704H91.3517C91.5609 12.7869 92.0498 12.4911 92.5691 12.5339C92.9711 12.5033 93.3651 12.6596 93.6398 12.9587C93.9145 13.2578 94.0401 13.6672 93.981 14.0714V16.7474H93.176V14.2762C93.176 13.6119 92.8911 13.2816 92.2957 13.2816C92.023 13.2687 91.7583 13.3772 91.5711 13.5785C91.3839 13.7799 91.2927 14.054 91.3216 14.3291V16.7474H90.5166V12.6137ZM98.5302 11.5845V12.6325H99.414V13.3197H98.5302V15.4453C98.5302 15.8783 98.7063 16.0679 99.107 16.0679C99.2096 16.0676 99.3121 16.0613 99.414 16.0491V16.7286C99.2694 16.7548 99.123 16.7688 98.9761 16.7703C98.0808 16.7703 97.7242 16.4511 97.7242 15.6542V13.3197H97.0766V12.6325H97.7242V11.5845H98.5302ZM100.514 11H101.312V13.278H101.375C101.595 12.7903 102.092 12.4941 102.619 12.5375C103.019 12.5154 103.408 12.6752 103.679 12.9732C103.951 13.2712 104.077 13.6765 104.024 14.0786V16.7474H103.218V14.2798C103.218 13.6195 102.915 13.2852 102.346 13.2852C102.066 13.2619 101.79 13.3651 101.592 13.5671C101.394 13.7692 101.294 14.0495 101.319 14.3332V16.7474H100.514L100.514 11ZM108.718 15.6313C108.493 16.411 107.748 16.9148 106.951 16.8272C106.407 16.8418 105.884 16.6133 105.521 16.2024C105.158 15.7915 104.992 15.2398 105.066 14.6936C104.994 14.1458 105.16 13.5932 105.521 13.1788C105.881 12.7645 106.402 12.5292 106.947 12.5339C108.082 12.5339 108.767 13.3197 108.767 14.6178V14.9025H105.886V14.9482C105.861 15.2549 105.964 15.5583 106.171 15.7838C106.378 16.0092 106.669 16.1358 106.973 16.1324C107.367 16.1803 107.75 15.9823 107.943 15.6313L108.718 15.6313ZM105.886 14.2991H107.947C107.967 14.0186 107.87 13.7423 107.679 13.5384C107.488 13.3344 107.22 13.2218 106.943 13.2282C106.661 13.2247 106.391 13.3364 106.192 13.538C105.993 13.7396 105.883 14.0141 105.886 14.2991ZM36.4758 22.6198C36.4779 24.5457 37.6343 26.2837 39.4129 27.0339C39.0708 28.1421 38.5552 29.1894 37.8852 30.1369C36.9853 31.4794 36.0418 32.7909 34.5443 32.8151C33.0893 32.8486 32.6003 31.9612 30.9314 31.9612C29.2468 31.9612 28.7256 32.7909 27.33 32.8486C25.9039 32.9013 24.814 31.4158 23.8814 30.086C22.0175 27.3702 20.5661 22.4324 22.5119 19.0726C23.4256 17.4351 25.1341 16.396 27.0122 16.3354C28.4396 16.3061 29.7652 17.2968 30.6428 17.2968C31.5037 17.2968 33.1417 16.1117 34.8312 16.2886C36.4371 16.3387 37.9252 17.141 38.8468 18.4536C37.3926 19.3452 36.4978 20.9175 36.4758 22.6198ZM33.7274 14.5025C32.9353 15.4851 31.735 16.0511 30.4708 16.0381C30.3905 14.8061 30.8044 13.5927 31.6216 12.6653C32.4491 11.7252 33.6014 11.1307 34.8488 11C34.9462 12.2685 34.5439 13.525 33.7274 14.5025Z" fill="white"/>
</svg>
