<svg width="45" height="45" viewBox="0 0 45 45" fill="none" xmlns="http://www.w3.org/2000/svg">
<path d="M7.43555 18.8437L8.74512 18.3252L9.77344 20.9443L8.46387 21.4629L7.43555 18.8437Z" fill="black"/>
<path d="M43.5938 18.2197V21.3047L22.5 32.1943L1.40625 21.3135V18.5625L22.5 1.88965L24.293 3.30469L25.1631 2.19727L22.5 0.0966797L0 17.8857V44.9473H45V18.2285H43.5938V18.2197ZM1.40625 22.8955L20.9707 32.9941L1.40625 43.084V22.8955ZM3.59473 43.5322L22.5 33.7764L41.4053 43.5322H3.59473ZM43.5938 43.084L24.0293 32.9853L43.5938 22.8955V43.084Z" fill="black"/>
<path d="M16.4707 13.0078L9.27246 15.8467L11.8564 22.3857L14.4756 21.3574L16.7959 27.2461L20.7158 25.6992L18.3955 19.8105L19.0459 19.5557C22.7461 18.0439 26.8945 18.0352 30.6035 19.5293L32.1328 20.1621L25.6113 3.63867L24.9258 5.1416C23.2383 8.7627 20.2061 11.584 16.4707 13.0078ZM12.6475 20.5664L11.1006 16.6465L16.3301 14.5811L17.877 18.501L12.6475 20.5664ZM18.8965 24.8994L17.5869 25.418L15.7764 20.8389L17.0859 20.3203L18.8965 24.8994ZM29.6543 17.6924C26.2266 16.6904 22.5615 16.7959 19.1953 18.0088L17.6221 14.0273C20.9092 12.6211 23.6602 10.1953 25.4795 7.11914L29.6543 17.6924Z" fill="black"/>
<path d="M40.7021 8.25293C41.9502 11.373 41.8887 14.8623 40.5439 17.9385L41.8359 18.501C44.9209 11.373 41.6602 3.09375 34.5322 0L33.9697 1.29199C37.0547 2.61914 39.4805 5.12402 40.7021 8.25293Z" fill="black"/>
<path d="M36.7822 9.79981C37.6084 11.8828 37.5732 14.2031 36.6768 16.251L37.9687 16.8047C40.1221 11.8125 37.8369 6.0293 32.8535 3.8584L32.291 5.15039C34.3477 6.04687 35.9648 7.7168 36.7822 9.79981Z" fill="black"/>
<path d="M32.8008 14.581L34.0928 15.1435C35.3232 12.2959 34.0225 8.98242 31.1748 7.74316L30.6123 9.03516C32.748 9.95801 33.7324 12.4453 32.8008 14.581Z" fill="black"/>
</svg>
