<svg width="25" height="24" viewBox="0 0 25 24" fill="none" xmlns="http://www.w3.org/2000/svg">
<path d="M16.6546 16.2236H9.43457" stroke="rgb(88, 102, 126)" stroke-width="1.5" stroke-linecap="round" stroke-linejoin="round"/>
<path d="M11.9346 12.0371H9.43457" stroke="rgb(88, 102, 126)" stroke-width="1.5" stroke-linecap="round" stroke-linejoin="round"/>
<path d="M12.1905 7.86035H9.43555" stroke="rgb(88, 102, 126)" stroke-width="1.5" stroke-linecap="round" stroke-linejoin="round"/>
<path fill-rule="evenodd" clip-rule="evenodd" d="M16.8475 2.75C16.8475 2.75 9.17045 2.754 9.15845 2.754C6.39845 2.771 4.68945 4.587 4.68945 7.357V16.553C4.68945 19.337 6.41145 21.16 9.19545 21.16C9.19545 21.16 16.8715 21.157 16.8845 21.157C19.6445 21.14 21.3545 19.323 21.3545 16.553V7.357C21.3545 4.573 19.6315 2.75 16.8475 2.75Z" stroke="rgb(88, 102, 126)" stroke-width="1.5" stroke-linecap="round" stroke-linejoin="round"/>
<path fill-rule="evenodd" clip-rule="evenodd" d="M15.7567 7.4V7H16.1203V7.4H16.6657C17.3687 7.4 17.9385 8.0268 17.9385 8.8H17.5748C17.5748 8.24772 17.1678 7.8 16.6657 7.8H15.2112C14.7091 7.8 14.3021 8.24772 14.3021 8.8C14.3021 9.35228 14.7091 9.8 15.2112 9.8H16.6657C17.3687 9.8 17.9385 10.4268 17.9385 11.2C17.9385 11.9732 17.3687 12.6 16.6657 12.6H16.1203V13H15.7567V12.6H15.2112C14.5083 12.6 13.9385 11.9732 13.9385 11.2H14.3021C14.3021 11.7523 14.7091 12.2 15.2112 12.2H16.6657C17.1678 12.2 17.5748 11.7523 17.5748 11.2C17.5748 10.6477 17.1678 10.2 16.6657 10.2H15.2112C14.5083 10.2 13.9385 9.5732 13.9385 8.8C13.9385 8.0268 14.5083 7.4 15.2112 7.4H15.7567Z" fill="rgb(88, 102, 126)" stroke="rgb(88, 102, 126)" stroke-width="0.5"/>
</svg>
