<svg width="512" height="512" viewBox="0 0 512 512" fill="none" xmlns="http://www.w3.org/2000/svg">
<path d="M256 512C391.31 512 501 397.385 501 256C501 114.615 391.31 0 256 0C120.69 0 11 114.615 11 256C11 397.385 120.69 512 256 512Z" fill="#5C5C5C"/>
<path d="M256 485C389.929 485 498.5 376.429 498.5 242.5C498.5 108.571 389.929 0 256 0C122.071 0 13.5 108.571 13.5 242.5C13.5 376.429 122.071 485 256 485Z" fill="#B5B5B5"/>
<path opacity="0.5" d="M352.8 20.1001L33.6002 339.2C22.9002 314.7 16.2002 288.1 14.2002 260.2L273.7 0.600098C301.6 2.7001 328.2 9.4001 352.8 20.1001Z" fill="white"/>
<path opacity="0.5" d="M467.3 123.5L137 453.8C116.4 442.2 97.8 427.7 81.5 410.8L424.4 68C441.2 84.2 455.7 102.9 467.3 123.5Z" fill="white"/>
<path opacity="0.5" d="M414.5 58.9001L72.4999 400.9C67.1999 394.7 62.0999 388.2 57.3999 381.5L395.1 43.8C401.8 48.5 408.3 53.6001 414.5 58.9001Z" fill="white"/>
<path opacity="0.5" d="M490.9 182L195.5 477.4C186.6 475.1 177.9 472.3 169.4 469.1L482.6 155.9C485.8 164.4 488.6 173.1 490.9 182Z" fill="white"/>
<path opacity="0.5" d="M498.5 242.5C498.5 244.2 498.5 245.8 498.4 247.5C495.8 115.9 388.3 10 256 10C123.7 10 16.2 115.9 13.6 247.5C13.6 245.8 13.5 244.2 13.5 242.5C13.5 108.6 122.1 0 256 0C389.9 0 498.5 108.6 498.5 242.5Z" fill="white"/>
<path opacity="0.5" d="M453 253C453 357.9 367.9 443 263 443C204.1 443 151.4 416.1 116.5 374C151.2 411.5 200.8 435 256 435C360.9 435 446 349.9 446 245C446 199 429.7 156.9 402.5 124C433.8 157.9 453 203.2 453 253Z" fill="white"/>
<path d="M256 435C360.934 435 446 349.934 446 245C446 140.066 360.934 55 256 55C151.066 55 66 140.066 66 245C66 349.934 151.066 435 256 435Z" fill="#777777"/>
<path d="M400 121C366.7 92.3 323.4 75 276 75C171.1 75 86 160.1 86 265C86 312.4 103.3 355.7 132 389C91.6 354.1 66 302.6 66 245C66 140.1 151.1 55 256 55C313.5 55 365.1 80.6 400 121Z" fill="#5C5C5C"/>
<path opacity="0.25" d="M414.5 142.1C291.5 185.3 192.7 280.2 144.3 400.7C140.1 397.6 136 394.4 132 390.9C103.3 357.6 86 314.3 86 267C86 162.1 171.1 77 276 77C323.4 77 366.7 94.3 399.9 123C405.2 129.1 410 135.5 414.5 142.1Z" fill="white"/>
</svg>
