<svg width="24" height="24" viewBox="0 0 24 24" fill="none" xmlns="http://www.w3.org/2000/svg">
<path d="M12 24C18.6274 24 24 18.6274 24 12C24 5.37258 18.6274 0 12 0C5.37258 0 0 5.37258 0 12C0 18.6274 5.37258 24 12 24Z" fill="#E6007A"/>
<path d="M12.204 4.96875C9.42376 4.96875 7.15201 7.22775 7.15201 10.0207C7.15201 10.5825 7.24501 11.1307 7.41901 11.6647C7.4806 11.841 7.60895 11.9861 7.77643 12.0687C7.94391 12.1514 8.13713 12.1649 8.31451 12.1065C8.49067 12.0448 8.63556 11.9163 8.71803 11.7489C8.8005 11.5814 8.81396 11.3883 8.75551 11.211C8.60887 10.7947 8.54096 10.3547 8.55526 9.9135C8.60851 8.0295 10.1325 6.4785 12.0173 6.3855C12.511 6.35956 13.0048 6.43432 13.4687 6.60524C13.9325 6.77615 14.3568 7.03965 14.7157 7.37969C15.0745 7.71974 15.3604 8.12924 15.5561 8.58327C15.7517 9.0373 15.8529 9.52637 15.8535 10.0207C15.8524 10.9505 15.4962 11.8447 14.8577 12.5205C14.2192 13.1964 13.3467 13.6028 12.4185 13.6567C12.4185 13.6567 11.7098 13.6965 11.3625 13.7505C11.1885 13.7767 11.055 13.8037 10.9613 13.8172C10.9208 13.8307 10.881 13.7902 10.8938 13.7497L11.0145 13.1625L11.6693 10.1415C11.7074 9.96087 11.6727 9.77247 11.5727 9.61728C11.4727 9.46209 11.3155 9.35264 11.1353 9.31275C10.9545 9.27461 10.766 9.3094 10.6108 9.40955C10.4556 9.5097 10.3462 9.6671 10.3065 9.8475C10.3065 9.8475 8.72926 17.199 8.71576 17.2792C8.67762 17.46 8.71241 17.6485 8.81256 17.8037C8.91271 17.9589 9.07011 18.0683 9.25051 18.108C9.43125 18.1461 9.61973 18.1113 9.77495 18.0112C9.93016 17.911 10.0395 17.7536 10.0793 17.5732C10.092 17.493 10.3065 16.5173 10.3065 16.5173C10.3824 16.1595 10.567 15.8339 10.8349 15.5851C11.1029 15.3362 11.4411 15.1761 11.8035 15.1267C12.0657 15.098 12.3285 15.0758 12.5918 15.06C13.8607 14.9611 15.0458 14.3874 15.9105 13.4534C16.7752 12.5193 17.2559 11.2936 17.2568 10.0207C17.2568 7.22775 14.9843 4.96875 12.204 4.96875ZM12.5648 16.5975C12.4559 16.574 12.3435 16.5724 12.2341 16.5927C12.1246 16.6129 12.0202 16.6547 11.927 16.7156C11.8338 16.7765 11.7537 16.8553 11.6911 16.9474C11.6286 17.0396 11.585 17.1432 11.5628 17.2522C11.469 17.7067 11.7503 18.1612 12.2175 18.255C12.3264 18.2786 12.439 18.2803 12.5486 18.26C12.6582 18.2397 12.7626 18.1979 12.8559 18.1369C12.9492 18.0759 13.0295 17.997 13.092 17.9047C13.1546 17.8125 13.1981 17.7087 13.2203 17.5995C13.3133 17.1322 13.0328 16.6905 12.5648 16.5975Z" fill="white"/>
</svg>
